# xmcd CD database file
#
# Track frame offsets:
#	150
#	12995
#	26898
#	41833
#	53689
#	67251
#	82171
#	95923
#	106345
#	128334
#
# Disc length: 1921 seconds
#
# Revision: 0
# Processed by: cddbd v1.5.1PL0 Copyright (c) Steve Scherf et al.
# Submitted via: CDex 1.51
#
DISCID=8a077f0a
DTITLE=B. B. King - Why I Sing The Blues (part 1)
DYEAR=1992
DGENRE=Blues
TTITLE0=Why I sing the Blues
TTITLE1=Bad luck
TTITLE2=Trouble in Mind
TTITLE3=Dark is the night (Part 1)
TTITLE4=Blues at sunrise
TTITLE5=Dust my broom
TTITLE6=I want to get married
TTITLE7=Blues for me
TTITLE8=Night life
TTITLE9=Blind love
EXTD=YEAR: 1992
EXTT0=
EXTT1=
EXTT2=
EXTT3=
EXTT4=
EXTT5=
EXTT6=
EXTT7=
EXTT8=
EXTT9=
PLAYORDER=
